ply
format ascii 1.0
element vertex 50
property float x
property float y
property float z
property uchar red
property uchar green
property uchar blue
end_header
-0.2305 -0.1505 3.1799 207 207 207
-0.2004 -0.1499 3.1065 195 197 196
-0.1132 -0.2388 3.1640 116 128 142
-0.0715 -0.2178 3.1927 255 255 255
-0.0433 -0.2552 3.2619 75 129 139
-0.0376 -0.2644 3.2586 65 142 168
-0.0195 -0.1872 3.2738 59 141 163
-0.0134 -0.1408 3.2845 145 173 174
-0.0062 -0.3606 3.2634 66 68 83
0.0094 -0.2071 3.2990 135 135 145
0.0146 -0.2017 3.3047 240 239 247
0.0155 -0.2161 3.3043 245 252 255
0.0270 -0.2063 3.3173 253 254 255
0.0334 -0.1746 3.3175 255 253 255
0.0496 -0.2063 3.3341 152 155 170
0.0580 -0.2046 3.3370 250 254 255
0.0584 -0.2192 3.3364 162 164 179
0.0688 -0.2172 3.3450 254 254 255
0.0770 -0.2900 3.3242 80 116 128
0.0896 -0.3089 3.3221 68 69 74
0.0911 -0.2273 3.3560 196 202 226
0.1009 -0.2877 3.3408 70 55 50
0.1016 -0.3015 3.3369 214 189 149
0.1016 -0.3015 3.3369 214 189 149
0.1026 -0.3364 3.3195 132 136 137
0.1077 -0.2304 3.3656 252 255 255
0.1125 -0.3278 3.3339 206 209 218
0.1130 -0.3129 3.3447 71 62 47
0.1175 -0.2490 3.3710 255 254 255
0.1259 -0.2344 3.3776 142 154 166
0.1259 -0.3168 3.3466 169 165 162
0.1312 -0.2421 3.3809 241 253 255
0.1324 -0.2287 3.3838 231 238 246
0.1374 -0.3217 3.3521 94 134 146
0.1720 -0.4927 3.5028 73 80 96
0.1733 -0.4174 3.4208 74 79 83
0.3853 -0.6058 6.6768 74 130 147
-0.5789 2.4456 -8.1282 255 255 238
0.2644 -0.3360 3.4720 255 253 255
0.2673 -0.3618 3.4659 248 255 255
0.2673 -0.3618 3.4659 248 255 255
0.3187 -0.3751 3.5255 97 129 150
0.3591 -0.3409 3.5744 251 255 255
0.3654 -0.3239 3.3710 255 254 255
0.3953 -0.4000 3.5865 255 255 253
0.4619 -0.2632 3.5995 65 137 152
0.4619 -0.2632 3.5995 65 137 152
0.6077 -0.0167 3.8157 41 32 37
0.5934 -0.3462 3.6835 74 131 160
0.6629 -0.1544 3.8245 255 255 255
